<svg xmlns="http://www.w3.org/2000/svg" version="1.1" xmlns:xlink="http://www.w3.org/1999/xlink" xmlns:svgjs="http://svgjs.dev/svgjs" width="1000" height="1000" viewBox="0 0 1000 1000"><rect width="1000" height="1000" fill="#000000"></rect><g transform="matrix(0.7,0,0,0.7,149.57577355086693,282.1265587044535)"><svg viewBox="0 0 396 247" data-background-color="#ffffff" preserveAspectRatio="xMidYMid meet" height="623" width="1000" xmlns="http://www.w3.org/2000/svg" xmlns:xlink="http://www.w3.org/1999/xlink"><g id="tight-bounds" transform="matrix(1,0,0,1,0.2399909626524277,-0.09999999999999432)"><svg viewBox="0 0 395.52 247.2" height="247.2" width="395.52"><g><svg></svg></g><g><svg viewBox="0 0 395.52 247.2" height="247.2" width="395.52"><g><g><path xmlns="http://www.w3.org/2000/svg" d="M144.626 238.707c-16.94-5.616-30.244-12.912-39.911-21.889l12.774-26.93c9.207 8.286 21.014 15.007 35.423 20.163 14.362 5.202 29.139 7.803 44.33 7.803 20.025 0 34.985-3.406 44.883-10.22 7.694-5.261 12.397-11.884 14.11-19.871l33.926 0c-1.293 9.087-4.531 17.552-9.713 25.395-6.905 10.496-17.378 18.782-31.418 24.858-14.04 6.122-31.303 9.184-51.788 9.184-18.183 0-35.722-2.831-52.616-8.493zM120.803 34.18c6.767-10.358 17.055-18.644 30.866-24.858 13.81-6.215 30.958-9.322 51.442-9.322 14.27 0 28.311 1.841 42.121 5.524 13.81 3.683 25.664 8.977 35.561 15.882l-11.393 27.62c-10.127-6.445-20.945-11.347-32.454-14.708-11.508-3.314-22.787-4.972-33.835-4.972-19.564 0-34.226 3.568-43.985 10.703-7.302 5.314-11.885 11.776-13.749 19.388l-34.129 0c1.294-9.122 4.479-17.541 9.555-25.257z" fill="#ffffff" fill-rule="nonzero" stroke="none" stroke-width="1" stroke-linecap="butt" stroke-linejoin="miter" stroke-miterlimit="10" stroke-dasharray="" stroke-dashoffset="0" font-family="none" font-weight="none" font-size="none" text-anchor="none" style="mix-blend-mode: normal" data-fill-palette-color="tertiary"></path></g></g><g transform="matrix(1,0,0,1,0,69.71704581575233)"><svg viewBox="0 0 395.52 107.76590836849533" height="107.76590836849533" width="395.52"><g><svg viewBox="0 0 395.52 107.76590836849533" height="107.76590836849533" width="395.52"><g><svg viewBox="0 0 395.52 107.76590836849533" height="107.76590836849533" width="395.52"><g><svg viewBox="0 0 395.52 107.76590836849533" height="107.76590836849533" width="395.52"><g id="textblocktransform"><svg viewBox="0 0 395.52 107.76590836849533" height="107.76590836849533" width="395.52" id="textblock"><g><svg viewBox="0 0 395.52 70.44768335273574" height="70.44768335273574" width="395.52"><g transform="matrix(1,0,0,1,0,0)"><svg width="395.52" viewBox="2.049999952316284 -37.849998474121094 214.739990234375 38.25" height="70.44768335273574" data-palette-color="#ff0000"><path d="M15.45 0.4Q11.5 0.4 7.83-0.83 4.15-2.05 2.05-4L2.05-4 3.9-7.9Q5.9-6.1 9.03-4.98 12.15-3.85 15.45-3.85L15.45-3.85Q19.8-3.85 21.95-5.33 24.1-6.8 24.1-9.25L24.1-9.25Q24.1-11.05 22.93-12.18 21.75-13.3 20.03-13.9 18.3-14.5 15.15-15.25L15.15-15.25Q11.2-16.2 8.78-17.15 6.35-18.1 4.63-20.08 2.9-22.05 2.9-25.4L2.9-25.4Q2.9-28.2 4.38-30.45 5.85-32.7 8.85-34.05 11.85-35.4 16.3-35.4L16.3-35.4Q19.4-35.4 22.4-34.6 25.4-33.8 27.55-32.3L27.55-32.3 25.9-28.3Q23.7-29.7 21.2-30.43 18.7-31.15 16.3-31.15L16.3-31.15Q12.05-31.15 9.93-29.6 7.8-28.05 7.8-25.6L7.8-25.6Q7.8-23.8 9-22.68 10.2-21.55 11.98-20.93 13.75-20.3 16.8-19.6L16.8-19.6Q20.75-18.65 23.15-17.7 25.55-16.75 27.28-14.8 29-12.85 29-9.55L29-9.55Q29-6.8 27.5-4.53 26-2.25 22.95-0.93 19.9 0.4 15.45 0.4L15.45 0.4ZM55.5-26.5L60.3-26.5 60.3 0 55.75 0 55.75-4Q54.3-1.95 51.92-0.83 49.55 0.3 46.75 0.3L46.75 0.3Q41.45 0.3 38.4-2.63 35.35-5.55 35.35-11.25L35.35-11.25 35.35-26.5 40.15-26.5 40.15-11.8Q40.15-7.95 42-5.98 43.85-4 47.3-4L47.3-4Q51.1-4 53.3-6.3 55.5-8.6 55.5-12.8L55.5-12.8 55.5-26.5ZM89.65-37.1L94.45-37.1 94.45 0 89.85 0 89.85-4.2Q88.25-2 85.8-0.85 83.35 0.3 80.4 0.3L80.4 0.3Q76.55 0.3 73.5-1.4 70.45-3.1 68.72-6.18 67-9.25 67-13.25L67-13.25Q67-17.25 68.72-20.3 70.45-23.35 73.5-25.05 76.55-26.75 80.4-26.75L80.4-26.75Q83.25-26.75 85.65-25.68 88.05-24.6 89.65-22.5L89.65-22.5 89.65-37.1ZM80.8-3.9Q83.3-3.9 85.35-5.08 87.4-6.25 88.55-8.38 89.7-10.5 89.7-13.25L89.7-13.25Q89.7-16 88.55-18.13 87.4-20.25 85.35-21.4 83.3-22.55 80.8-22.55L80.8-22.55Q78.25-22.55 76.22-21.4 74.2-20.25 73.02-18.13 71.85-16 71.85-13.25L71.85-13.25Q71.85-10.5 73.02-8.38 74.2-6.25 76.22-5.08 78.25-3.9 80.8-3.9L80.8-3.9ZM117.89-35Q124.69-35 128.59-31.75 132.49-28.5 132.49-22.8L132.49-22.8Q132.49-17.1 128.59-13.85 124.69-10.6 117.89-10.6L117.89-10.6 109.24-10.6 109.24 0 104.24 0 104.24-35 117.89-35ZM117.74-14.95Q122.49-14.95 124.99-16.98 127.49-19 127.49-22.8L127.49-22.8Q127.49-26.6 124.99-28.63 122.49-30.65 117.74-30.65L117.74-30.65 109.24-30.65 109.24-14.95 117.74-14.95ZM143.29-22.05Q144.54-24.35 146.99-25.55 149.44-26.75 152.94-26.75L152.94-26.75 152.94-22.1Q152.54-22.15 151.84-22.15L151.84-22.15Q147.94-22.15 145.72-19.83 143.49-17.5 143.49-13.2L143.49-13.2 143.49 0 138.69 0 138.69-26.5 143.29-26.5 143.29-22.05ZM158.84 0L158.84-26.5 163.64-26.5 163.64 0 158.84 0ZM161.24-31.6Q159.84-31.6 158.91-32.5 157.99-33.4 157.99-34.7L157.99-34.7Q157.99-36 158.91-36.93 159.84-37.85 161.24-37.85L161.24-37.85Q162.64-37.85 163.56-36.98 164.49-36.1 164.49-34.8L164.49-34.8Q164.49-33.45 163.56-32.52 162.64-31.6 161.24-31.6L161.24-31.6ZM205.94-26.75Q210.94-26.75 213.86-23.85 216.79-20.95 216.79-15.25L216.79-15.25 216.79 0 211.99 0 211.99-14.7Q211.99-18.55 210.21-20.5 208.44-22.45 205.14-22.45L205.14-22.45Q201.49-22.45 199.34-20.18 197.19-17.9 197.19-13.65L197.19-13.65 197.19 0 192.39 0 192.39-14.7Q192.39-18.55 190.61-20.5 188.84-22.45 185.54-22.45L185.54-22.45Q181.89-22.45 179.74-20.18 177.59-17.9 177.59-13.65L177.59-13.65 177.59 0 172.79 0 172.79-26.5 177.39-26.5 177.39-22.55Q178.84-24.6 181.19-25.68 183.54-26.75 186.54-26.75L186.54-26.75Q189.64-26.75 192.04-25.5 194.44-24.25 195.74-21.85L195.74-21.85Q197.24-24.15 199.91-25.45 202.59-26.75 205.94-26.75L205.94-26.75Z" opacity="1" transform="matrix(1,0,0,1,0,0)" fill="#ffffff" class="undefined-text-0" data-fill-palette-color="primary" id="text-0"></path></svg></g></svg></g><g transform="matrix(1,0,0,1,0,80.72769109830034)"><svg viewBox="0 0 395.52 27.038217270194988" height="27.038217270194988" width="395.52"><g transform="matrix(1,0,0,1,0,0)"><svg width="395.52" viewBox="4 -29.450000762939453 430.760009765625 29.450000762939453" height="27.038217270194988" data-palette-color="#ff0000"><path d="M10.6 0L4 0 4-29.4 10.6-29.4 10.6 0ZM23.7 0L17.6 0 17.6-22.4 21.7-22.4 23.7-21.4Q25.8-21.8 28.75-22.1 31.7-22.4 35.5-22.4L35.5-22.4 38-22.4Q40.5-22.4 41.85-21.7 43.2-21 43.77-19.95 44.35-18.9 44.47-17.82 44.6-16.75 44.6-16L44.6-16 44.6 0 38.5 0 38.5-16.1Q38.5-18.1 36.1-18.1L36.1-18.1 25.2-18.1Q24.25-18.1 23.97-17.93 23.7-17.75 23.7-17L23.7-17 23.7 0ZM86.09 0L62.34 0 62.34-29.45 84.09-29.45Q88.79-29.45 90.94-27.58 93.09-25.7 93.09-23.05L93.09-23.05 93.09-21.55Q93.09-19.5 92.22-18.18 91.34-16.85 90.34-16.3L90.34-16.3Q92.54-15.6 93.84-13.88 95.14-12.15 95.14-9.35L95.14-9.35 95.14-8.45Q95.14-6.95 94.79-5.45 94.44-3.95 93.47-2.73 92.49-1.5 90.72-0.75 88.94 0 86.09 0L86.09 0ZM68.94-24.65L68.94-17.65 83.04-17.65Q84.79-17.6 85.64-18.53 86.49-19.45 86.49-20.85L86.49-20.85 86.49-21.35Q86.49-22.5 85.69-23.58 84.89-24.65 82.69-24.65L82.69-24.65 68.94-24.65ZM68.94-12.75L68.94-4.8 84.69-4.8Q86.59-4.8 87.57-5.75 88.54-6.7 88.54-8.35L88.54-8.35 88.54-9.25Q88.54-10.8 87.39-11.78 86.24-12.75 83.59-12.75L83.59-12.75 68.94-12.75ZM110.09 0L107.59 0Q103.79 0 102.09-1.78 100.39-3.55 100.39-6.65L100.39-6.65Q100.39-9.9 102.17-11.65 103.94-13.4 107.59-13.4L107.59-13.4 110.14-13.4Q113.89-13.4 116.89-13.2 119.89-13 121.84-12.8L121.84-12.8 121.84-16.1Q121.84-16.55 121.74-17.03 121.64-17.5 121.14-17.8 120.64-18.1 119.44-18.1L119.44-18.1 116.94-18.1Q111.49-18.1 107.84-17.93 104.19-17.75 102.89-17.6L102.89-17.6 102.34-21.4Q102.34-22.1 106.14-22.25 109.94-22.4 118.84-22.4L118.84-22.4 121.34-22.4Q123.84-22.4 125.19-21.7 126.54-21 127.12-19.95 127.69-18.9 127.82-17.82 127.94-16.75 127.94-16L127.94-16 127.94 0 123.84 0 121.89-1Q119.79-0.65 116.84-0.33 113.89 0 110.09 0L110.09 0ZM108.89-4.3L108.89-4.3 120.34-4.3Q121.44-4.3 121.64-4.5 121.84-4.7 121.84-5.75L121.84-5.75 121.84-9.6 108.89-9.6Q107.54-9.6 107.02-8.95 106.49-8.3 106.49-6.9L106.49-6.9Q106.49-5.5 107.09-4.9 107.69-4.3 108.89-4.3ZM153.49 0L139.34 0Q135.99 0 134.59-0.35 133.19-0.7 133.19-1.05L133.19-1.05 134.69-4.8Q136.14-4.65 140.01-4.48 143.89-4.3 149.59-4.3L149.59-4.3 152.09-4.3Q153.34-4.3 153.66-4.98 153.99-5.65 153.99-6.8L153.99-6.8Q153.99-7.95 153.61-8.65 153.24-9.35 152.09-9.35L152.09-9.35 139.79-9.35Q136.29-9.35 134.74-10.68 133.19-12 133.19-14.65L133.19-14.65 133.19-16.65Q133.19-17.35 133.34-18.3 133.49-19.25 134.09-20.2 134.69-21.15 136.04-21.78 137.39-22.4 139.79-22.4L139.79-22.4 153.59-22.4Q156.59-22.4 157.84-22.05 159.09-21.7 159.09-21.35L159.09-21.35 158.59-17.6Q157.14-17.75 153.24-17.93 149.34-18.1 143.69-18.1L143.69-18.1 141.19-18.1Q139.94-18.1 139.61-17.43 139.29-16.75 139.29-15.85L139.29-15.85Q139.29-14.9 139.61-14.28 139.94-13.65 141.19-13.65L141.19-13.65 153.49-13.65Q156.89-13.65 158.49-12.25 160.09-10.85 160.09-8.7L160.09-8.7 160.09-5.75Q160.09-4.85 159.96-3.85 159.84-2.85 159.24-1.98 158.64-1.1 157.29-0.55 155.94 0 153.49 0L153.49 0ZM185.39 0L171.24 0Q167.89 0 166.49-0.35 165.09-0.7 165.09-1.05L165.09-1.05 166.59-4.8Q168.04-4.65 171.91-4.48 175.79-4.3 181.49-4.3L181.49-4.3 183.99-4.3Q185.24-4.3 185.56-4.98 185.89-5.65 185.89-6.8L185.89-6.8Q185.89-7.95 185.51-8.65 185.14-9.35 183.99-9.35L183.99-9.35 171.69-9.35Q168.19-9.35 166.64-10.68 165.09-12 165.09-14.65L165.09-14.65 165.09-16.65Q165.09-17.35 165.24-18.3 165.39-19.25 165.99-20.2 166.59-21.15 167.94-21.78 169.29-22.4 171.69-22.4L171.69-22.4 185.49-22.4Q188.49-22.4 189.74-22.05 190.99-21.7 190.99-21.35L190.99-21.35 190.49-17.6Q189.04-17.75 185.14-17.93 181.24-18.1 175.59-18.1L175.59-18.1 173.09-18.1Q171.84-18.1 171.51-17.43 171.19-16.75 171.19-15.85L171.19-15.85Q171.19-14.9 171.51-14.28 171.84-13.65 173.09-13.65L173.09-13.65 185.39-13.65Q188.79-13.65 190.39-12.25 191.99-10.85 191.99-8.7L191.99-8.7 191.99-5.75Q191.99-4.85 191.86-3.85 191.74-2.85 191.14-1.98 190.54-1.1 189.19-0.55 187.84 0 185.39 0L185.39 0ZM222.03 0L214.03 0 205.98-22.4 212.98-22.4 217.03-9.7 218.33-5.25 218.83-5.25 219.58-9.2 223.03-22.4 231.03-22.4 234.68-9.2 235.38-5.25 235.88-5.25 237.23-9.8 241.03-22.4 248.03-22.4 247.23-19.35 240.03 0 232.03 0 227.88-13.75 227.38-16.1 226.88-16.1 226.28-13.75 222.03 0ZM267.68 0L257.63 0Q255.13 0 253.78-0.65 252.43-1.3 251.85-2.3 251.28-3.3 251.15-4.4 251.03-5.5 251.03-6.4L251.03-6.4 251.03-16Q251.03-16.75 251.15-17.82 251.28-18.9 251.85-19.95 252.43-21 253.8-21.7 255.18-22.4 257.63-22.4L257.63-22.4 268.38-22.4Q271.68-22.4 273.55-21.78 275.43-21.15 276.2-19.75 276.98-18.35 276.98-16L276.98-16 276.98-8.6 268.23-8.6Q263.73-8.6 260.9-8.8 258.08-9 257.13-9.05L257.13-9.05 257.13-6.3Q257.08-4.3 259.53-4.3L259.53-4.3 262.08-4.3Q264.78-4.3 267.35-4.38 269.93-4.45 272.08-4.58 274.23-4.7 275.53-4.8L275.53-4.8 277.53-1.55Q277.53 0 267.68 0L267.68 0ZM257.13-16.1L257.13-12.9 270.88-12.9 270.88-16.1Q270.88-17.1 270.65-17.5 270.43-17.9 269.33-18 268.23-18.1 265.58-18.1L265.58-18.1 259.53-18.1Q257.13-18.1 257.13-16.1L257.13-16.1ZM311.17 0L304.57 0 304.52-24.65 291.52-24.65 291.52-29.45 324.22-29.45 324.22-24.65 311.17-24.65 311.17 0ZM333.32 0L327.22 0 327.22-22.4 331.32-22.4 333.22-21.4Q334.52-22.1 336.02-22.5 337.52-22.9 339.82-22.9L339.82-22.9Q343.47-22.9 345.75-22.1 348.02-21.3 348.77-20.9L348.77-20.9 347.02-16.55Q346.42-16.85 345.05-17.32 343.67-17.8 341.82-18.2 339.97-18.6 337.77-18.6L337.77-18.6 337.22-18.6Q334.82-18.6 334.1-17.65 333.37-16.7 333.32-14.5L333.32-14.5 333.32 0ZM361.42 0L358.87 0Q356.42 0 355.04-0.65 353.67-1.3 353.09-2.3 352.52-3.3 352.39-4.4 352.27-5.5 352.27-6.4L352.27-6.4 352.27-22.4 358.37-22.4 358.37-6.3Q358.32-5.2 359.09-4.75 359.87-4.3 360.77-4.3L360.77-4.3 370.67-4.3Q371.77-4.3 371.97-4.5 372.17-4.7 372.17-5.8L372.17-5.8 372.17-22.4 378.27-22.4 378.27 0 374.17 0 372.27-1Q370.27-0.6 367.54-0.3 364.82 0 361.42 0L361.42 0ZM404.07 0L389.92 0Q386.57 0 385.17-0.35 383.77-0.7 383.77-1.05L383.77-1.05 385.27-4.8Q386.72-4.65 390.59-4.48 394.47-4.3 400.17-4.3L400.17-4.3 402.67-4.3Q403.92-4.3 404.24-4.98 404.57-5.65 404.57-6.8L404.57-6.8Q404.57-7.95 404.19-8.65 403.82-9.35 402.67-9.35L402.67-9.35 390.37-9.35Q386.87-9.35 385.32-10.68 383.77-12 383.77-14.65L383.77-14.65 383.77-16.65Q383.77-17.35 383.92-18.3 384.07-19.25 384.67-20.2 385.27-21.15 386.62-21.78 387.97-22.4 390.37-22.4L390.37-22.4 404.17-22.4Q407.17-22.4 408.42-22.05 409.67-21.7 409.67-21.35L409.67-21.35 409.17-17.6Q407.72-17.75 403.82-17.93 399.92-18.1 394.27-18.1L394.27-18.1 391.77-18.1Q390.52-18.1 390.19-17.43 389.87-16.75 389.87-15.85L389.87-15.85Q389.87-14.9 390.19-14.28 390.52-13.65 391.77-13.65L391.77-13.65 404.07-13.65Q407.47-13.65 409.07-12.25 410.67-10.85 410.67-8.7L410.67-8.7 410.67-5.75Q410.67-4.85 410.54-3.85 410.42-2.85 409.82-1.98 409.22-1.1 407.87-0.55 406.52 0 404.07 0L404.07 0ZM426.41 0L424.86 0Q421.06 0 419.66-1.6 418.26-3.2 418.26-6.4L418.26-6.4 418.26-18.1 414.16-18.1 414.16-22.4 416.26-22.4Q417.21-22.4 417.64-22.7 418.06-23 418.26-23.9L418.26-23.9 419.26-29.25 424.36-29.25 424.36-22.4 434.76-22.4 434.76-18.1 424.36-18.1 424.36-6.35Q424.36-5.1 424.96-4.7 425.56-4.3 426.76-4.3L426.76-4.3 433.81-4.3 434.31-0.5Q433.26-0.35 431.11-0.18 428.96 0 426.41 0L426.41 0Z" opacity="1" transform="matrix(1,0,0,1,0,0)" fill="#ffffff" class="undefined-text-1" data-fill-palette-color="secondary" id="text-1"></path></svg></g></svg></g></svg></g></svg></g></svg></g></svg></g></svg></g></svg></g><defs></defs></svg><rect width="395.52" height="247.2" fill="none" stroke="none" visibility="hidden"></rect></g></svg></g></svg>